<svg width="116" height="36" viewBox="0 0 116 36" fill="none" xmlns="http://www.w3.org/2000/svg">
<rect x="12" y="7.71362" width="19.159" height="20.5275" rx="5.474" fill="white"/>
<path fill-rule="evenodd" clip-rule="evenodd" d="M22.3281 11.8191L19.7852 14.4268V19.0417L23.4179 22.7671H27.0506L23.4179 19.0417L27.0506 15.3164H23.4179L22.3281 16.434V11.8191Z" fill="#FABF5A"/>
<path fill-rule="evenodd" clip-rule="evenodd" d="M16.1055 15.3022L19.7382 19.0345L16.1055 22.7668H19.7382L23.371 19.0345L19.7382 15.3022H16.1055Z" fill="#1873DE"/>
<path d="M37.4412 21.9774V12.6761H39.4078V16.7772H39.5304L42.8776 12.6761H45.2347L41.783 16.8408L45.2756 21.9774H42.923L40.3751 18.1534L39.4078 19.3342V21.9774H37.4412ZM48.1572 12.6761V21.9774H46.2225V12.6761H48.1572ZM52.8862 22.1137C52.1686 22.1137 51.551 21.9683 51.0332 21.6777C50.5185 21.384 50.1219 20.9692 49.8433 20.4333C49.5648 19.8943 49.4255 19.257 49.4255 18.5212C49.4255 17.8036 49.5648 17.1739 49.8433 16.6319C50.1219 16.0899 50.514 15.6676 51.0196 15.3648C51.5283 15.062 52.1247 14.9106 52.809 14.9106C53.2692 14.9106 53.6977 14.9848 54.0943 15.1332C54.494 15.2785 54.8422 15.498 55.1389 15.7917C55.4386 16.0854 55.6718 16.4548 55.8383 16.8999C56.0048 17.3419 56.0881 17.8597 56.0881 18.4531V18.9845H50.1976V17.7855H54.2669C54.2669 17.5069 54.2063 17.2602 54.0852 17.0452C53.9641 16.8302 53.7961 16.6622 53.5811 16.5411C53.3692 16.4169 53.1224 16.3549 52.8408 16.3549C52.5471 16.3549 52.2867 16.423 52.0596 16.5592C51.8356 16.6925 51.66 16.8726 51.5328 17.0997C51.4056 17.3237 51.3406 17.5735 51.3375 17.8491V18.989C51.3375 19.3342 51.4011 19.6324 51.5283 19.8837C51.6585 20.135 51.8416 20.3288 52.0778 20.465C52.314 20.6013 52.594 20.6694 52.918 20.6694C53.133 20.6694 53.3298 20.6391 53.5084 20.5786C53.6871 20.518 53.84 20.4272 53.9671 20.3061C54.0943 20.185 54.1912 20.0366 54.2578 19.861L56.0472 19.9791C55.9564 20.409 55.7702 20.7845 55.4886 21.1054C55.21 21.4233 54.8497 21.6716 54.4077 21.8503C53.9687 22.0259 53.4615 22.1137 52.8862 22.1137ZM59.3399 22.1091C58.8948 22.1091 58.4982 22.0319 58.15 21.8775C57.8018 21.7201 57.5263 21.4884 57.3234 21.1826C57.1236 20.8738 57.0237 20.4893 57.0237 20.0291C57.0237 19.6415 57.0948 19.316 57.2371 19.0526C57.3794 18.7892 57.5732 18.5772 57.8185 18.4168C58.0637 18.2563 58.3423 18.1352 58.6541 18.0534C58.969 17.9717 59.299 17.9142 59.6442 17.8809C60.0499 17.8385 60.3769 17.7991 60.6252 17.7628C60.8735 17.7234 61.0536 17.6659 61.1656 17.5902C61.2777 17.5145 61.3337 17.4025 61.3337 17.2541V17.2269C61.3337 16.9392 61.2429 16.7167 61.0612 16.5592C60.8825 16.4018 60.6282 16.3231 60.2982 16.3231C59.95 16.3231 59.673 16.4003 59.4671 16.5547C59.2612 16.7061 59.1249 16.8968 59.0583 17.1269L57.2689 16.9816C57.3597 16.5577 57.5384 16.1914 57.8048 15.8825C58.0713 15.5707 58.4149 15.3315 58.8358 15.1649C59.2597 14.9954 59.7502 14.9106 60.3073 14.9106C60.6948 14.9106 61.0657 14.956 61.42 15.0469C61.7773 15.1377 62.0937 15.2785 62.3692 15.4692C62.6477 15.66 62.8672 15.9052 63.0277 16.205C63.1882 16.5017 63.2684 16.8575 63.2684 17.2723V21.9774H61.4336V21.01H61.3791C61.2671 21.228 61.1172 21.4203 60.9295 21.5868C60.7418 21.7503 60.5162 21.879 60.2528 21.9729C59.9894 22.0637 59.6851 22.1091 59.3399 22.1091ZM59.894 20.7739C60.1786 20.7739 60.4299 20.7179 60.6479 20.6058C60.8659 20.4908 61.037 20.3364 61.1611 20.1426C61.2852 19.9488 61.3473 19.7293 61.3473 19.4841V18.7438C61.2868 18.7831 61.2035 18.8195 61.0975 18.8528C60.9946 18.883 60.878 18.9118 60.7478 18.9391C60.6176 18.9633 60.4874 18.986 60.3572 19.0072C60.227 19.0253 60.109 19.042 60.003 19.0571C59.7759 19.0904 59.5776 19.1434 59.408 19.2161C59.2385 19.2888 59.1068 19.3872 59.0129 19.5113C58.919 19.6324 58.8721 19.7838 58.8721 19.9655C58.8721 20.2289 58.9675 20.4302 59.1582 20.5695C59.352 20.7058 59.5973 20.7739 59.894 20.7739ZM64.7694 21.9774V15.0014H66.6451V16.2186H66.7178C66.845 15.7856 67.0584 15.4586 67.3582 15.2376C67.6579 15.0136 68.0031 14.9015 68.3937 14.9015C68.4906 14.9015 68.595 14.9076 68.707 14.9197C68.8191 14.9318 68.9175 14.9485 69.0023 14.9697V16.6864C68.9114 16.6591 68.7858 16.6349 68.6253 16.6137C68.4648 16.5925 68.318 16.5819 68.1848 16.5819C67.9001 16.5819 67.6458 16.644 67.4218 16.7681C67.2007 16.8893 67.0251 17.0588 66.8949 17.2768C66.7678 17.4948 66.7042 17.7461 66.7042 18.0307V21.9774H64.7694ZM75.4434 15.0014C75.3889 14.5412 75.1679 14.184 74.7804 13.9296C74.3928 13.6753 73.9175 13.5481 73.3543 13.5481C72.9425 13.5481 72.5822 13.6147 72.2734 13.748C71.9676 13.8812 71.7284 14.0644 71.5558 14.2975C71.3862 14.5306 71.3015 14.7956 71.3015 15.0923C71.3015 15.3406 71.3605 15.554 71.4786 15.7327C71.5997 15.9083 71.7541 16.0551 71.9418 16.1732C72.1296 16.2882 72.3264 16.3836 72.5322 16.4593C72.7381 16.532 72.9274 16.591 73.1 16.6364L74.0446 16.8908C74.2868 16.9544 74.5563 17.0422 74.853 17.1542C75.1528 17.2662 75.4389 17.4191 75.7114 17.6129C75.9869 17.8036 76.214 18.0489 76.3926 18.3486C76.5713 18.6484 76.6606 19.0163 76.6606 19.4523C76.6606 19.9549 76.5289 20.409 76.2655 20.8148C76.0051 21.2205 75.6236 21.5429 75.121 21.7821C74.6214 22.0213 74.0143 22.1409 73.2998 22.1409C72.6337 22.1409 72.0569 22.0334 71.5694 21.8185C71.085 21.6035 70.7035 21.3037 70.4249 20.9192C70.1494 20.5347 69.9935 20.0881 69.9571 19.5794H71.1198C71.1501 19.9306 71.2682 20.2213 71.474 20.4514C71.683 20.6785 71.9464 20.8481 72.2643 20.9601C72.5852 21.0691 72.9304 21.1236 73.2998 21.1236C73.7297 21.1236 74.1158 21.0539 74.4579 20.9147C74.8 20.7724 75.071 20.5756 75.2709 20.3243C75.4707 20.0699 75.5706 19.7732 75.5706 19.4341C75.5706 19.1253 75.4843 18.874 75.3117 18.6802C75.1392 18.4864 74.9121 18.329 74.6305 18.2079C74.3489 18.0867 74.0446 17.9808 73.7176 17.8899L72.5731 17.5629C71.8465 17.354 71.2712 17.0558 70.8473 16.6682C70.4234 16.2807 70.2115 15.7735 70.2115 15.1468C70.2115 14.626 70.3523 14.1718 70.6338 13.7843C70.9185 13.3937 71.2999 13.0909 71.7783 12.876C72.2597 12.658 72.7972 12.549 73.3906 12.549C73.9901 12.549 74.523 12.6564 74.9893 12.8714C75.4556 13.0834 75.8249 13.374 76.0974 13.7434C76.373 14.1128 76.5183 14.5321 76.5334 15.0014H75.4434ZM81.4009 15.0014V15.9098H77.7858V15.0014H81.4009ZM78.8395 13.3301H79.9113V19.9791C79.9113 20.2819 79.9552 20.509 80.043 20.6603C80.1338 20.8087 80.2489 20.9086 80.3882 20.9601C80.5305 21.0085 80.6803 21.0328 80.8378 21.0328C80.9559 21.0328 81.0528 21.0267 81.1284 21.0146C81.2041 20.9994 81.2647 20.9873 81.3101 20.9783L81.5281 21.9411C81.4554 21.9683 81.354 21.9956 81.2238 22.0228C81.0936 22.0531 80.9286 22.0682 80.7288 22.0682C80.426 22.0682 80.1293 22.0032 79.8386 21.873C79.551 21.7428 79.3118 21.5444 79.121 21.278C78.9333 21.0116 78.8395 20.6755 78.8395 20.2698V13.3301ZM85.0661 22.1409C84.624 22.1409 84.2228 22.0577 83.8625 21.8911C83.5022 21.7216 83.2161 21.4778 83.0041 21.1599C82.7922 20.839 82.6862 20.4514 82.6862 19.9973C82.6862 19.5976 82.765 19.2736 82.9224 19.0253C83.0798 18.774 83.2903 18.5772 83.5537 18.4349C83.8171 18.2926 84.1078 18.1867 84.4257 18.117C84.7466 18.0444 85.0691 17.9868 85.3931 17.9444C85.8169 17.8899 86.1606 17.8491 86.424 17.8218C86.6904 17.7915 86.8842 17.7416 87.0053 17.6719C87.1295 17.6023 87.1915 17.4812 87.1915 17.3086V17.2723C87.1915 16.8242 87.0689 16.476 86.8237 16.2277C86.5814 15.9794 86.2136 15.8553 85.7201 15.8553C85.2084 15.8553 84.8072 15.9673 84.5165 16.1914C84.2258 16.4154 84.0215 16.6546 83.9034 16.9089L82.8861 16.5456C83.0677 16.1217 83.31 15.7917 83.6127 15.5555C83.9185 15.3163 84.2516 15.1498 84.6119 15.0559C84.9752 14.9591 85.3325 14.9106 85.6837 14.9106C85.9078 14.9106 86.1651 14.9379 86.4558 14.9924C86.7495 15.0438 87.0326 15.1513 87.3051 15.3148C87.5806 15.4783 87.8092 15.7251 87.9909 16.0551C88.1725 16.3851 88.2634 16.8272 88.2634 17.3813V21.9774H87.1915V21.0328H87.137C87.0644 21.1841 86.9433 21.3461 86.7737 21.5187C86.6042 21.6913 86.3786 21.8381 86.097 21.9593C85.8154 22.0804 85.4718 22.1409 85.0661 22.1409ZM85.2296 21.1781C85.6534 21.1781 86.0107 21.0948 86.3014 20.9283C86.5951 20.7618 86.8161 20.5468 86.9645 20.2834C87.1158 20.02 87.1915 19.7429 87.1915 19.4523V18.4713C87.1461 18.5258 87.0462 18.5757 86.8918 18.6211C86.7404 18.6635 86.5648 18.7014 86.365 18.7347C86.1682 18.765 85.9759 18.7922 85.7882 18.8164C85.6035 18.8376 85.4536 18.8558 85.3386 18.8709C85.06 18.9073 84.7996 18.9663 84.5574 19.0481C84.3182 19.1268 84.1244 19.2464 83.9761 19.4068C83.8307 19.5643 83.7581 19.7793 83.7581 20.0518C83.7581 20.4242 83.8958 20.7058 84.1713 20.8965C84.4499 21.0842 84.8026 21.1781 85.2296 21.1781ZM93.0537 22.1227C92.3997 22.1227 91.8365 21.9683 91.3642 21.6595C90.8918 21.3507 90.5285 20.9253 90.2742 20.3833C90.0199 19.8413 89.8927 19.2222 89.8927 18.5258C89.8927 17.8173 90.0229 17.192 90.2833 16.6501C90.5467 16.1051 90.913 15.6797 91.3823 15.3739C91.8547 15.065 92.4057 14.9106 93.0355 14.9106C93.526 14.9106 93.9681 15.0014 94.3617 15.1831C94.7553 15.3648 95.0777 15.6191 95.329 15.9461C95.5803 16.2731 95.7363 16.6546 95.7968 17.0906H94.725C94.6432 16.7727 94.4616 16.4911 94.18 16.2459C93.9014 15.9976 93.526 15.8734 93.0537 15.8734C92.6358 15.8734 92.2695 15.9824 91.9546 16.2004C91.6427 16.4154 91.399 16.7197 91.2234 17.1133C91.0508 17.5039 90.9645 17.9626 90.9645 18.4894C90.9645 19.0284 91.0493 19.4977 91.2188 19.8973C91.3914 20.297 91.6337 20.6074 91.9455 20.8284C92.2604 21.0494 92.6298 21.1599 93.0537 21.1599C93.3322 21.1599 93.585 21.1115 93.8121 21.0146C94.0392 20.9177 94.2315 20.7784 94.3889 20.5968C94.5464 20.4151 94.6584 20.1971 94.725 19.9428H95.7968C95.7363 20.3545 95.5864 20.7254 95.3472 21.0555C95.111 21.3825 94.7977 21.6428 94.4071 21.8366C94.0195 22.0274 93.5684 22.1227 93.0537 22.1227ZM98.3629 19.4341L98.3447 18.1079H98.5627L101.615 15.0014H102.941L99.689 18.2896H99.5982L98.3629 19.4341ZM97.3637 21.9774V12.6761H98.4355V21.9774H97.3637ZM101.796 21.9774L99.0714 18.5258L99.8343 17.7809L103.159 21.9774H101.796Z" fill="white"/>
</svg>
